# xmcd
#
# Track frame offsets:
#	150
#	17363
#	37184
#	58692
#	77596
#	99732
#	125542
#	143727
#	171394
#	191538
#	212078
#	234181
#	254595
#	276050
#
# Disc length: 3953 seconds
#
# Revision: 1890464683
# Processed by: cddbd v1.5.2PL0 Copyright (c) Steve Scherf et al.
# Submitted via: EZCDAudioConverter 8.0.2.1
#
DISCID=c30f6f0e
DTITLE=Toàn Nguyễn - Hãy Về Với Em
DYEAR=2009
DGENRE=Electronic
TTITLE0=Hãy Về Với Em
TTITLE1=Một lần nữa thôi
TTITLE2=Bài không tên số 5
TTITLE3=Em đã ra đi
TTITLE4=Trái tim bên lề
TTITLE5=Bài không tên số 7
TTITLE6=Kẻ đau tình
TTITLE7=Hướng về Hà Nội
TTITLE8=Biển cạn
TTITLE9=Trả lại anh
TTITLE10=Ngựa hoang
TTITLE11=Bài không tên số 8
TTITLE12=Yêu em dài lâu
TTITLE13=Mười năm tình cũ
EXTD=
EXTT0=
EXTT1=
EXTT2=
EXTT3=
EXTT4=
EXTT5=
EXTT6=
EXTT7=
EXTT8=
EXTT9=
EXTT10=
EXTT11=
EXTT12=
EXTT13=
PLAYORDER=
